<?xml version="1.0" encoding="iso-8859-1"?>
<!-- Generator: Adobe Illustrator 19.0.0, SVG Export Plug-In . SVG Version: 6.00 Build 0)  -->
<svg version="1.1" xmlns="http://www.w3.org/2000/svg" xmlns:xlink="http://www.w3.org/1999/xlink" x="0px" y="0px"
	 viewBox="0 0 913.778 314.876" style="enable-background:new 0 0 913.778 314.876;" xml:space="preserve">
<g id="Camada_1_1_">
	<g id="XMLID_45_">
		<g id="XMLID_30_" style="display:none;">
			<path id="XMLID_93_" style="display:inline;fill:#424143;" d="M28.141,302.405H12.139l-3.892,11.56H2.764l14.482-41.014
				l-0.485-1.575h6.087l14.908,42.588h-5.78L28.141,302.405z M13.664,297.839H26.68l-5.116-15.517l-1.396-4.804l-1.402,4.928
				L13.664,297.839z"/>
			<path id="XMLID_91_" style="display:inline;fill:#424143;" d="M70.899,282.624l-4.869,0.312c0-4.572-3.283-7.915-8.335-7.915
				c-5.419,0-9.128,2.793-9.376,9.484c-0.114,3.843-0.173,10.901,0,16.314c0.188,6.33,4.631,9.554,9.738,9.554
				c6.206,0,8.949-4.135,9.187-9.851c0.124-2.56-0.064-4.507-0.064-4.507h-9.237v-4.26H72.36c0,0,0.188,4.933,0.064,8.702
				c-0.377,8.39-5.181,14.418-14.546,14.418c-7.974,0-14.541-4.804-15.036-14.293c-0.238-4.443-0.179-11.446,0-16.077
				c0.431-9.484,6.998-14.051,14.977-14.051C66.154,270.455,71.26,275.868,70.899,282.624z"/>
			<path id="XMLID_88_" style="display:inline;fill:#424143;" d="M81.032,271.376h23.114v4.556H86.51v13.992h15.879v4.572H86.51
				v14.902h17.637v4.566H81.032V271.376z M94.236,260.416l6.875,7.915h-4.626l-3.709-4.205l-3.779,4.205h-4.383l7.003-7.915H94.236z
				"/>
			<path id="XMLID_86_" style="display:inline;fill:#424143;" d="M118.237,271.376l16.374,27.622l3.046,6.755v-34.377h5.165v42.588
				h-5.478l-16.611-28.171l-2.863-6.453v34.624h-5.166v-42.588H118.237z"/>
			<path id="XMLID_84_" style="display:inline;fill:#424143;" d="M175.719,282.936c0-4.572-3.041-7.915-8.4-7.915
				c-5.84,0-9.123,3.219-9.371,9.484c-0.178,4.933-0.178,10.599,0,16.617c0.184,5.78,4.141,9.197,9.123,9.197
				c5.542,0,8.761-3.17,8.949-8.227l4.869,0.312c0.188,6.756-5.171,12.471-13.818,12.471c-8.266,0-14.294-4.804-14.606-13.694
				c-0.173-4.74-0.173-11.981,0-16.676c0.376-8.326,6.028-14.051,14.977-14.051c8.643,0,13.506,5.413,13.145,12.169L175.719,282.936
				z"/>
			<path id="XMLID_82_" style="display:inline;fill:#424143;" d="M194.376,313.965h-5.483v-42.588h5.483V313.965z"/>
			<path id="XMLID_79_" style="display:inline;fill:#424143;" d="M226.153,302.405H210.15l-3.893,11.56h-5.482l14.482-41.014
				l-0.485-1.575h6.087l14.908,42.588h-5.78L226.153,302.405z M211.671,297.839h13.021l-5.106-15.517l-1.407-4.804l-1.401,4.928
				L211.671,297.839z"/>
			<path id="XMLID_76_" style="display:inline;fill:#424143;" d="M259.846,271.376c0,0,4.319-0.312,8.875-0.312
				c9.202,0,18.202,2.62,18.999,14.115c0.297,4.507,0.297,8.767,0,14.18c-0.614,11.074-9.311,14.908-19.598,14.908
				c-5.116,0-8.276-0.302-8.276-0.302V271.376z M269.336,275.63c-2.674,0-4.012,0.114-4.012,0.114v33.842
				c0,0,1.699,0.124,3.774,0.124c5.78,0,12.654-1.709,13.145-10.099c0.297-5.056,0.297-9.316,0-14.13
				C281.752,278.429,276.701,275.63,269.336,275.63z"/>
			<path id="XMLID_74_" style="display:inline;fill:#424143;" d="M302.906,313.965h-5.478v-42.588h5.478V313.965z"/>
			<path id="XMLID_72_" style="display:inline;fill:#424143;" d="M340.586,282.624l-4.869,0.312c0-4.572-3.284-7.915-8.336-7.915
				c-5.418,0-9.128,2.793-9.375,9.484c-0.124,3.843-0.178,10.901,0,16.314c0.188,6.33,4.631,9.554,9.737,9.554
				c6.216,0,8.95-4.135,9.188-9.851c0.124-2.56-0.055-4.507-0.055-4.507h-9.257v-4.26h14.427c0,0,0.173,4.933,0.064,8.702
				c-0.366,8.39-5.18,14.418-14.546,14.418c-7.974,0-14.551-4.804-15.027-14.293c-0.252-4.443-0.188-11.446,0-16.077
				c0.421-9.484,6.988-14.051,14.967-14.051C335.841,270.455,340.948,275.868,340.586,282.624z"/>
			<path id="XMLID_70_" style="display:inline;fill:#424143;" d="M356.207,313.965h-5.482v-42.588h5.482V313.965z"/>
			<path id="XMLID_68_" style="display:inline;fill:#424143;" d="M374.344,275.933h-12.045v-4.556h29.568v4.556h-12.045v38.032
				h-5.478V275.933z"/>
			<path id="XMLID_65_" style="display:inline;fill:#424143;" d="M415.14,302.405h-16.002l-3.893,11.56h-5.478l14.477-41.014
				l-0.485-1.575h6.092l14.903,42.588h-5.78L415.14,302.405z M400.663,297.839h13.016l-5.102-15.517l-1.411-4.804l-1.397,4.928
				L400.663,297.839z"/>
			<path id="XMLID_63_" style="display:inline;fill:#424143;" d="M431.177,271.376h5.468v38.022h17.285v4.566h-22.753V271.376z"/>
		</g>
		<g id="XMLID_46_">
			<path id="XMLID_60_" style="fill:#424143;" d="M6.443,116.909c4.289-9.935,10.183-18.657,17.672-26.145
				c7.498-7.489,16.26-13.382,26.329-17.682c10.054-4.289,20.737-6.443,32.034-6.443c11.54,0,22.282,2.154,32.223,6.443
				c9.945,4.299,18.707,10.193,26.329,17.682c7.618,7.488,13.56,16.21,17.86,26.145c4.289,9.94,6.443,20.673,6.443,32.213v82.849
				h-32.772v-82.849c0-6.859-1.288-13.303-3.863-19.33c-2.58-6.017-6.142-11.298-10.688-15.834
				c-4.537-4.537-9.875-8.103-16.007-10.678c-6.151-2.57-12.654-3.853-19.524-3.853c-6.884,0-13.318,1.283-19.326,3.853
				c-6.027,2.575-11.292,6.142-15.839,10.678c-4.537,4.537-8.098,9.817-10.678,15.834c-2.58,6.028-3.863,12.471-3.863,19.33v82.849
				H0v-82.849C0,137.582,2.144,126.85,6.443,116.909z"/>
			<path id="XMLID_57_" style="fill:#424143;" d="M305.991,173.421l23.204,23.214l-11.426,11.411
				c-7.86,7.865-16.809,13.872-26.868,18.043c-10.079,4.175-20.623,6.26-31.673,6.26c-11.045,0-21.609-2.085-31.663-6.26
				c-10.069-4.17-19.038-10.178-26.884-18.043c-8.098-8.098-14.125-17.246-18.043-27.428c-3.922-10.203-5.894-20.569-5.894-31.124
				c0-10.554,1.971-20.861,5.894-30.93c3.918-10.054,9.945-19.137,18.043-27.25c8.093-8.113,17.236-14.17,27.428-18.231
				c10.183-4.037,20.564-6.067,31.118-6.067c10.554,0,20.92,2.031,31.113,6.067c10.193,4.061,19.326,10.119,27.428,18.231
				l11.426,11.416l-91.69,91.686c9.321,4.67,19.192,6.206,29.632,4.611c10.431-1.595,19.579-6.329,27.439-14.18L305.991,173.421z
				 M223.875,114.141c-9.822,9.822-14.73,21.609-14.73,35.353c0,7.613,1.718,14.854,5.146,21.718
				c2.952-2.937,7.429-7.414,13.447-13.422c6.017-6.017,12.397-12.407,19.142-19.162c6.76-6.751,13.268-13.184,19.524-19.326
				c6.266-6.132,11.114-10.931,14.552-14.358c-9.341-4.661-19.212-6.255-29.652-4.795
				C240.872,101.63,231.735,106.301,223.875,114.141z"/>
			<path id="XMLID_55_" style="fill:#424143;" d="M439.285,198.838v32.772h-16.211c-11.277,0-21.965-2.144-32.024-6.443
				c-10.069-4.299-18.905-10.242-26.507-17.855c-7.613-7.612-13.566-16.448-17.855-26.517c-4.299-10.069-6.454-20.747-6.454-32.049
				V0h32.772v66.525h66.278v32.772h-66.278v49.448c0,6.889,1.293,13.382,3.873,19.529c2.58,6.141,6.132,11.476,10.668,16.012
				c4.537,4.556,9.881,8.107,16.022,10.688c6.121,2.58,12.639,3.863,19.504,3.863H439.285z"/>
			<g id="XMLID_47_">
				<path id="XMLID_6_" style="fill:#36A2DF;" d="M824.337,95.573c-8.885,1.263-16.676,5.23-23.343,11.911
					c-8.38,8.355-12.555,18.395-12.555,30.088c0,6.493,1.471,12.654,4.393,18.498c2.506-2.506,6.325-6.31,11.441-11.436
					c5.121-5.116,10.549-10.564,16.295-16.304c5.76-5.735,11.292-11.228,16.617-16.458c5.334-5.22,9.455-9.301,12.386-12.219
					C841.617,95.687,833.217,94.33,824.337,95.573z"/>
				<path id="XMLID_5_" style="fill:#36A2DF;" d="M687.863,95.573c-8.875,1.263-16.666,5.23-23.347,11.911
					c-8.37,8.355-12.541,18.395-12.541,30.088c0,6.493,1.456,12.654,4.388,18.498c2.506-2.506,6.32-6.31,11.446-11.436
					c5.106-5.116,10.544-10.564,16.295-16.304c5.75-5.735,11.287-11.228,16.612-16.458c5.334-5.22,9.449-9.301,12.391-12.219
					C705.148,95.687,696.739,94.33,687.863,95.573z"/>
				<path id="XMLID_48_" style="fill:#36A2DF;" d="M881.957,19.098H496.598c-17.577,0-31.821,14.244-31.821,31.821v166.314
					c0,17.577,14.244,31.821,31.821,31.821h26.017l-26.017,39.399l62.147-39.399h323.212c17.577,0,31.821-14.244,31.821-31.821
					V50.919C913.778,33.342,899.534,19.098,881.957,19.098z M629.609,207.797H491.368c11.495-15.878,22.466-31.148,32.926-45.768
					c4.378-6.28,8.925-12.59,13.63-18.969c4.69-6.369,9.133-12.53,13.323-18.489c4.17-5.954,8.147-11.495,11.906-16.612
					c3.764-5.116,6.899-9.45,9.396-13.011h-83.692V67.045h137.939c-11.719,15.888-22.684,31.148-32.921,45.773
					c-4.388,6.265-8.885,12.595-13.486,18.964c-4.596,6.379-8.979,12.53-13.164,18.489c-4.181,5.953-8.137,11.505-11.912,16.612
					c-3.759,5.131-6.884,9.46-9.405,13.02h83.701V207.797z M701.34,179.75c8.885-1.357,16.666-5.399,23.357-12.08l9.727-9.722
					l19.742,19.752l-9.717,9.722c-6.701,6.691-14.314,11.812-22.882,15.353c-8.573,3.561-17.557,5.334-26.958,5.334
					c-9.405,0-18.4-1.774-26.963-5.334c-8.568-3.541-16.2-8.662-22.882-15.353c-6.889-6.894-12.025-14.675-15.358-23.352
					c-3.348-8.672-5.017-17.508-5.017-26.497c0-8.98,1.669-17.756,5.017-26.329c3.333-8.558,8.469-16.294,15.358-23.194
					c6.899-6.899,14.69-12.065,23.347-15.517c8.678-3.447,17.513-5.165,26.498-5.165c8.979,0,17.815,1.718,26.482,5.165
					c8.672,3.452,16.458,8.618,23.357,15.517l9.717,9.717l-78.05,78.055C684.05,179.79,692.464,181.097,701.34,179.75z
					 M837.813,179.75c8.885-1.357,16.666-5.399,23.357-12.08l9.718-9.722l19.741,19.752l-9.727,9.722
					c-6.681,6.691-14.294,11.812-22.872,15.353c-8.563,3.561-17.552,5.334-26.948,5.334c-9.415,0-18.394-1.774-26.972-5.334
					c-8.554-3.541-16.191-8.662-22.882-15.353c-6.889-6.894-12.016-14.675-15.359-23.352c-3.338-8.672-5.002-17.508-5.002-26.497
					c0-8.98,1.664-17.756,5.002-26.329c3.343-8.558,8.47-16.294,15.359-23.194c6.899-6.899,14.689-12.065,23.357-15.517
					c8.682-3.447,17.498-5.165,26.497-5.165c8.97,0,17.815,1.718,26.473,5.165c8.672,3.452,16.458,8.618,23.347,15.517l9.727,9.717
					l-78.045,78.055C820.518,179.79,828.927,181.097,837.813,179.75z"/>
			</g>
		</g>
	</g>
</g>
<g id="Camada_1">
</g>
</svg>
